<?xml version="1.0" encoding="UTF-8"?>
<svg id="Layer_1" data-name="Layer 1" xmlns="http://www.w3.org/2000/svg" viewBox="0 0 100 267">
  <defs>
    <style>
      .cls-1 {
        fill: #f17313;
      }
    </style>
  </defs>
  <path class="cls-1" d="M92.81,208.77c0,15.05-3.04,25.61-9.13,31.69-6.09,6.09-15.76,9.13-29.04,9.13H7.19V17.3H54.65c13.05,0,22.67,3.21,28.87,9.62,6.19,6.42,9.29,17.26,9.29,32.52V208.77ZM57.63,57.45c0-5.53-.45-9.23-1.33-11.12-.89-1.88-2.88-2.82-5.97-2.82h-8.3V222.04h8.3c3.1,0,5.09-1,5.97-2.99,.88-1.99,1.33-5.86,1.33-11.61V57.45Z"/>
</svg>