<?xml version="1.0" encoding="UTF-8"?>
<svg id="Layer_1" data-name="Layer 1" xmlns="http://www.w3.org/2000/svg" viewBox="0 0 145 267">
  <defs>
    <style>
      .cls-1 {
        fill: #f17313;
      }
    </style>
  </defs>
  <path class="cls-1" d="M79.97,249.58v-79.31c0-8.18-.55-13.38-1.66-15.6-1.11-2.21-3.76-3.32-7.96-3.32h-5.31v98.22H6.96V17.3H82.95c17.7,0,31.3,4.21,40.82,12.61,9.51,8.41,14.27,21.9,14.27,40.48v14.93c0,20.57-6.09,35.17-18.25,43.8,12.16,7.08,18.25,21.57,18.25,43.47v76.99h-58.07Zm-6.97-137.71c2.43,0,4.15-1,5.14-2.99,1-1.99,1.49-5.42,1.49-10.29v-30.2c.22-4.42-.22-7.52-1.33-9.29-1.11-1.77-2.88-2.65-5.31-2.65h-7.96v55.42h7.96Z"/>
</svg>